# xmcd
# Copyright (C) 1995-1998 Ti Kan
#
# Track frame offsets:
#       150
#       12856
#       24495
#       42716
#       51743
#       63817
#       78874
#       95260
#       107685
#       120625
#       131524
#       146358
#       164704
#
# Disc length: 2511 seconds
#
# Revision: 0
# Processed by: cddbd v1.5.2PL0 Copyright (c) Steve Scherf et al.
# Submitted via: CD-Import v1.0
#
DISCID=ad09cd0d
DTITLE=Charlotte Gainsbourg - I R M
DYEAR=09
DGENRE=
TTITLE0=Master's Hands
TTITLE1=I R M
TTITLE2=Le Chat Du Café
TTITLE3=In The End...
TTITLE4=Heaven Can Wait
TTITLE5=Me And Jane
TTITLE6=Vanities
TTITLE7=Time Of...
TTITLE8=Trick
TTITLE9=Greenich Mean Time
TTITLE10=Dandelion
TTITLE11=Voyage
TTITLE12=La Colle...
EXTD=
EXTT0=
EXTT1=
EXTT2=
EXTT3=
EXTT4=
EXTT5=
EXTT6=
EXTT7=
EXTT8=
EXTT9=
EXTT10=
EXTT11=
EXTT12=
PLAYORDER=
